<mxfile host="65bd71144e">
    <diagram id="C58ijRKUWDpuQLPkOuTo" name="Page-1">
        <mxGraphModel dx="3168" dy="2652" grid="1" gridSize="10" guides="1" tooltips="1" connect="1" arrows="1" fold="1" page="1" pageScale="1" pageWidth="850" pageHeight="1100" math="0" shadow="0">
            <root>
                <mxCell id="0"/>
                <mxCell id="1" parent="0"/>
                <mxCell id="4" value="" style="edgeStyle=none;html=1;" edge="1" parent="1" source="2" target="3">
                    <mxGeometry relative="1" as="geometry"/>
                </mxCell>
                <mxCell id="2" value="Create topic's&lt;br&gt;&amp;nbsp;dictionary" style="html=1;dashed=0;whitespace=wrap;shape=mxgraph.dfd.start" vertex="1" parent="1">
                    <mxGeometry x="1346" y="103" width="80" height="40" as="geometry"/>
                </mxCell>
                <mxCell id="8" value="" style="edgeStyle=none;html=1;" edge="1" parent="1" source="3" target="7">
                    <mxGeometry relative="1" as="geometry"/>
                </mxCell>
                <mxCell id="3" value="Generate&lt;br&gt;Embeddings" style="html=1;dashed=0;whitespace=wrap;shape=mxgraph.dfd.start" vertex="1" parent="1">
                    <mxGeometry x="1346" y="188" width="80" height="40" as="geometry"/>
                </mxCell>
                <mxCell id="5" value="&lt;font style=&quot;font-size: 16px&quot;&gt;&lt;b&gt;Training&lt;/b&gt;&lt;/font&gt;" style="html=1;dashed=0;whitespace=wrap;" vertex="1" parent="1">
                    <mxGeometry x="1335" y="35" width="100" height="50" as="geometry"/>
                </mxCell>
                <mxCell id="41" value="" style="edgeStyle=none;html=1;fontSize=16;" edge="1" parent="1" source="7" target="40">
                    <mxGeometry relative="1" as="geometry"/>
                </mxCell>
                <mxCell id="7" value="Find average&lt;br&gt;embedding V" style="html=1;dashed=0;whitespace=wrap;shape=mxgraph.dfd.start" vertex="1" parent="1">
                    <mxGeometry x="1346" y="281" width="80" height="40" as="geometry"/>
                </mxCell>
                <mxCell id="50" style="edgeStyle=none;html=1;entryX=0;entryY=0.5;entryDx=0;entryDy=0;fontSize=15;" edge="1" parent="1">
                    <mxGeometry relative="1" as="geometry">
                        <mxPoint x="1159.5" y="469.8356164383563" as="sourcePoint"/>
                        <mxPoint x="1312" y="469" as="targetPoint"/>
                    </mxGeometry>
                </mxCell>
                <mxCell id="9" value="" style="shape=cylinder;whiteSpace=wrap;html=1;boundedLbl=1;backgroundOutline=1;" vertex="1" parent="1">
                    <mxGeometry x="1099.5" y="441" width="60" height="60" as="geometry"/>
                </mxCell>
                <mxCell id="28" value="" style="edgeStyle=none;html=1;" edge="1" parent="1" source="10">
                    <mxGeometry relative="1" as="geometry">
                        <mxPoint x="1129.5" y="440" as="targetPoint"/>
                    </mxGeometry>
                </mxCell>
                <mxCell id="10" value="Training&lt;br&gt;Dataset" style="html=1;dashed=0;whitespace=wrap;" vertex="1" parent="1">
                    <mxGeometry x="1086" y="384" width="87" height="30" as="geometry"/>
                </mxCell>
                <mxCell id="12" value="&lt;span style=&quot;font-size: 19px&quot;&gt;&lt;b&gt;Mean Model&lt;/b&gt;&lt;/span&gt;" style="html=1;dashed=0;whitespace=wrap;" vertex="1" parent="1">
                    <mxGeometry x="336.25" y="23" width="114" height="50" as="geometry"/>
                </mxCell>
                <mxCell id="27" style="edgeStyle=none;html=1;entryX=0.5;entryY=0.5;entryDx=0;entryDy=-15;entryPerimeter=0;" edge="1" parent="1">
                    <mxGeometry relative="1" as="geometry">
                        <mxPoint x="398.8061224489795" y="196.48979591836735" as="sourcePoint"/>
                        <mxPoint x="399.5" y="252" as="targetPoint"/>
                    </mxGeometry>
                </mxCell>
                <mxCell id="14" value="Text" style="triangle;whiteSpace=wrap;html=1;dashed=0;direction=south;" vertex="1" parent="1">
                    <mxGeometry x="368.5" y="153" width="60" height="50" as="geometry"/>
                </mxCell>
                <mxCell id="15" value="&lt;font style=&quot;font-size: 15px&quot;&gt;Determine whether a text&lt;br&gt;fits the topic or not&lt;/font&gt;" style="text;html=1;align=center;verticalAlign=middle;resizable=0;points=[];autosize=1;strokeColor=none;fillColor=none;" vertex="1" parent="1">
                    <mxGeometry x="422.5" y="173" width="180" height="30" as="geometry"/>
                </mxCell>
                <mxCell id="46" style="edgeStyle=none;html=1;entryX=1;entryY=0.5;entryDx=0;entryDy=0;fontSize=13;" edge="1" parent="1" source="21" target="30">
                    <mxGeometry relative="1" as="geometry"/>
                </mxCell>
                <mxCell id="47" style="edgeStyle=none;html=1;entryX=0;entryY=0.5;entryDx=0;entryDy=0;fontSize=13;" edge="1" parent="1" source="21" target="32">
                    <mxGeometry relative="1" as="geometry"/>
                </mxCell>
                <mxCell id="21" value="Generate Embedding E_text" style="html=1;dashed=0;whitespace=wrap;shape=mxgraph.dfd.start" vertex="1" parent="1">
                    <mxGeometry x="319.5" y="253" width="160" height="40" as="geometry"/>
                </mxCell>
                <mxCell id="35" style="edgeStyle=none;html=1;entryX=0.5;entryY=0.5;entryDx=0;entryDy=-15;entryPerimeter=0;fontSize=14;" edge="1" parent="1" source="30" target="34">
                    <mxGeometry relative="1" as="geometry"/>
                </mxCell>
                <mxCell id="30" value="&lt;font style=&quot;font-size: 14px&quot;&gt;cosine (E_text,V) &amp;gt; t&lt;/font&gt;" style="ellipse;whiteSpace=wrap;html=1;rounded=1;dashed=0;" vertex="1" parent="1">
                    <mxGeometry x="70" y="244" width="141" height="60" as="geometry"/>
                </mxCell>
                <mxCell id="37" style="edgeStyle=none;html=1;fontSize=19;" edge="1" parent="1" source="32" target="36">
                    <mxGeometry relative="1" as="geometry"/>
                </mxCell>
                <mxCell id="32" value="&lt;font style=&quot;font-size: 14px&quot;&gt;cosine (E_text,V) &amp;lt; t&lt;/font&gt;" style="ellipse;whiteSpace=wrap;html=1;rounded=1;dashed=0;" vertex="1" parent="1">
                    <mxGeometry x="570.5" y="243" width="144" height="60" as="geometry"/>
                </mxCell>
                <mxCell id="34" value="Text fits topic" style="html=1;dashed=0;whitespace=wrap;shape=mxgraph.dfd.start;fontSize=14;" vertex="1" parent="1">
                    <mxGeometry x="92.5" y="384" width="98.5" height="30" as="geometry"/>
                </mxCell>
                <mxCell id="36" value="Text does not fit" style="html=1;dashed=0;whitespace=wrap;shape=mxgraph.dfd.start;fontSize=14;" vertex="1" parent="1">
                    <mxGeometry x="587.5" y="384" width="110" height="30" as="geometry"/>
                </mxCell>
                <mxCell id="38" value="&lt;div style=&quot;text-align: left; font-size: 12px;&quot;&gt;&lt;span style=&quot;font-size: 12px;&quot;&gt;Finding:&lt;/span&gt;&lt;/div&gt;&lt;div style=&quot;text-align: left; font-size: 12px;&quot;&gt;&lt;span style=&quot;font-size: 12px;&quot;&gt;V: average topic dictionary&lt;/span&gt;&lt;/div&gt;&lt;div style=&quot;text-align: left; font-size: 12px;&quot;&gt;&lt;span style=&quot;font-size: 12px;&quot;&gt;t: threshold&lt;/span&gt;&lt;/div&gt;" style="text;html=1;align=center;verticalAlign=middle;resizable=0;points=[];autosize=1;strokeColor=none;fillColor=none;fontSize=12;" vertex="1" parent="1">
                    <mxGeometry x="1435" y="35" width="160" height="50" as="geometry"/>
                </mxCell>
                <mxCell id="40" value="&lt;b&gt;&lt;font style=&quot;font-size: 15px&quot;&gt;Mean Model&lt;/font&gt;&lt;/b&gt;" style="whiteSpace=wrap;html=1;dashed=0;" vertex="1" parent="1">
                    <mxGeometry x="1326" y="379" width="120" height="60" as="geometry"/>
                </mxCell>
                <mxCell id="42" value="&lt;font style=&quot;font-size: 13px&quot;&gt;Test with different thresholds&lt;br&gt;going from 0 to 1&amp;nbsp;&lt;/font&gt;" style="text;html=1;align=left;verticalAlign=middle;resizable=0;points=[];autosize=1;strokeColor=none;fillColor=none;fontSize=16;" vertex="1" parent="1">
                    <mxGeometry x="1485" y="444" width="180" height="50" as="geometry"/>
                </mxCell>
                <mxCell id="45" value="Params:&lt;br&gt;V: average topic embedding&lt;br&gt;t: threshold" style="rounded=1;whiteSpace=wrap;html=1;dashed=0;" vertex="1" parent="1">
                    <mxGeometry x="314.25" y="73" width="156" height="60" as="geometry"/>
                </mxCell>
                <mxCell id="56" style="edgeStyle=none;html=1;entryX=0.5;entryY=0.5;entryDx=0;entryDy=-15;entryPerimeter=0;fontSize=15;" edge="1" parent="1" source="49" target="55">
                    <mxGeometry relative="1" as="geometry"/>
                </mxCell>
                <mxCell id="49" value="Params:&lt;br&gt;V: average topic embedding" style="rounded=1;whiteSpace=wrap;html=1;dashed=0;" vertex="1" parent="1">
                    <mxGeometry x="1312" y="440" width="156" height="60" as="geometry"/>
                </mxCell>
                <mxCell id="53" value="t: threshold with the best accuracy&lt;br&gt;V: Average topic embedding" style="html=1;dashed=0;whitespace=wrap;shape=mxgraph.dfd.start;fontSize=15;" vertex="1" parent="1">
                    <mxGeometry x="1274" y="646" width="233" height="90" as="geometry"/>
                </mxCell>
                <mxCell id="57" style="edgeStyle=none;html=1;entryX=0.5;entryY=0.5;entryDx=0;entryDy=-45;entryPerimeter=0;fontSize=15;" edge="1" parent="1" source="55" target="53">
                    <mxGeometry relative="1" as="geometry"/>
                </mxCell>
                <mxCell id="55" value="Measure&amp;nbsp;accuracy &lt;br&gt;for each threshold" style="html=1;dashed=0;whitespace=wrap;shape=mxgraph.dfd.start;fontSize=15;" vertex="1" parent="1">
                    <mxGeometry x="1309" y="546" width="160" height="50" as="geometry"/>
                </mxCell>
                <mxCell id="58" value="Find keywords that&lt;br style=&quot;font-size: 12px&quot;&gt;are most relevant to&lt;br style=&quot;font-size: 12px&quot;&gt;the topic" style="text;html=1;align=center;verticalAlign=middle;resizable=0;points=[];autosize=1;strokeColor=none;fillColor=none;fontSize=12;" vertex="1" parent="1">
                    <mxGeometry x="1426" y="120" width="120" height="50" as="geometry"/>
                </mxCell>
                <mxCell id="59" value="Using SBERT" style="text;html=1;align=center;verticalAlign=middle;resizable=0;points=[];autosize=1;strokeColor=none;fillColor=none;fontSize=12;" vertex="1" parent="1">
                    <mxGeometry x="1416" y="220" width="90" height="20" as="geometry"/>
                </mxCell>
                <mxCell id="60" value="&lt;span style=&quot;font-size: 19px&quot;&gt;&lt;b&gt;Gram-Schmidt&lt;br&gt;&amp;nbsp;Model&lt;/b&gt;&lt;/span&gt;" style="html=1;dashed=0;whitespace=wrap;" vertex="1" parent="1">
                    <mxGeometry x="333" y="1330" width="140.25" height="50" as="geometry"/>
                </mxCell>
                <mxCell id="61" style="edgeStyle=none;html=1;entryX=0.5;entryY=0.5;entryDx=0;entryDy=-15;entryPerimeter=0;" edge="1" parent="1">
                    <mxGeometry relative="1" as="geometry">
                        <mxPoint x="398.8061224489793" y="1503.4897959183672" as="sourcePoint"/>
                        <mxPoint x="399.5" y="1559" as="targetPoint"/>
                    </mxGeometry>
                </mxCell>
                <mxCell id="62" value="Text" style="triangle;whiteSpace=wrap;html=1;dashed=0;direction=south;" vertex="1" parent="1">
                    <mxGeometry x="368.5" y="1460" width="60" height="50" as="geometry"/>
                </mxCell>
                <mxCell id="63" value="&lt;font style=&quot;font-size: 15px&quot;&gt;Determine whether a text&lt;br&gt;fits the topic or not&lt;/font&gt;" style="text;html=1;align=center;verticalAlign=middle;resizable=0;points=[];autosize=1;strokeColor=none;fillColor=none;" vertex="1" parent="1">
                    <mxGeometry x="422.5" y="1480" width="180" height="30" as="geometry"/>
                </mxCell>
                <mxCell id="64" style="edgeStyle=none;html=1;entryX=1;entryY=0.5;entryDx=0;entryDy=0;fontSize=13;" edge="1" parent="1" source="66" target="68">
                    <mxGeometry relative="1" as="geometry"/>
                </mxCell>
                <mxCell id="65" style="edgeStyle=none;html=1;entryX=0;entryY=0.5;entryDx=0;entryDy=0;fontSize=13;" edge="1" parent="1">
                    <mxGeometry relative="1" as="geometry">
                        <mxPoint x="479.5" y="1660" as="sourcePoint"/>
                        <mxPoint x="570.5000000000036" y="1660" as="targetPoint"/>
                    </mxGeometry>
                </mxCell>
                <mxCell id="75" value="" style="edgeStyle=none;html=1;fontSize=12;" edge="1" parent="1" source="66" target="74">
                    <mxGeometry relative="1" as="geometry"/>
                </mxCell>
                <mxCell id="66" value="Generate Embedding E_text" style="html=1;dashed=0;whitespace=wrap;shape=mxgraph.dfd.start" vertex="1" parent="1">
                    <mxGeometry x="319.5" y="1560" width="160" height="40" as="geometry"/>
                </mxCell>
                <mxCell id="67" style="edgeStyle=none;html=1;entryX=0.5;entryY=0.5;entryDx=0;entryDy=-15;entryPerimeter=0;fontSize=14;" edge="1" parent="1" source="68" target="71">
                    <mxGeometry relative="1" as="geometry"/>
                </mxCell>
                <mxCell id="68" value="&lt;font style=&quot;font-size: 14px&quot;&gt;cosine (E_text,V) &amp;gt; t&lt;/font&gt;" style="ellipse;whiteSpace=wrap;html=1;rounded=1;dashed=0;" vertex="1" parent="1">
                    <mxGeometry x="70" y="1551" width="141" height="60" as="geometry"/>
                </mxCell>
                <mxCell id="69" style="edgeStyle=none;html=1;fontSize=19;" edge="1" parent="1" source="70" target="72">
                    <mxGeometry relative="1" as="geometry"/>
                </mxCell>
                <mxCell id="70" value="&lt;font style=&quot;font-size: 14px&quot;&gt;cosine (E_text,V) &amp;lt; t&lt;/font&gt;" style="ellipse;whiteSpace=wrap;html=1;rounded=1;dashed=0;" vertex="1" parent="1">
                    <mxGeometry x="570.5" y="1622" width="144" height="60" as="geometry"/>
                </mxCell>
                <mxCell id="71" value="Text fits topic" style="html=1;dashed=0;whitespace=wrap;shape=mxgraph.dfd.start;fontSize=14;" vertex="1" parent="1">
                    <mxGeometry x="92.5" y="1691" width="98.5" height="30" as="geometry"/>
                </mxCell>
                <mxCell id="72" value="Text does not fit" style="html=1;dashed=0;whitespace=wrap;shape=mxgraph.dfd.start;fontSize=14;" vertex="1" parent="1">
                    <mxGeometry x="587.5" y="1763" width="110" height="30" as="geometry"/>
                </mxCell>
                <mxCell id="73" value="&lt;b&gt;&lt;u&gt;Params&lt;/u&gt;&lt;/b&gt;:&lt;br&gt;&lt;br&gt;S: Vector Space generated by the topic's embeddings&lt;br&gt;&lt;div style=&quot;text-align: left&quot;&gt;&lt;span&gt;t: threshold&lt;/span&gt;&lt;/div&gt;" style="rounded=1;whiteSpace=wrap;html=1;dashed=0;" vertex="1" parent="1">
                    <mxGeometry x="260" y="1380" width="290" height="60" as="geometry"/>
                </mxCell>
                <mxCell id="74" value="Find the orthogonal projection&lt;br&gt;" style="html=1;dashed=0;whitespace=wrap;shape=mxgraph.dfd.start" vertex="1" parent="1">
                    <mxGeometry x="319.5" y="1680" width="160" height="40" as="geometry"/>
                </mxCell>
            </root>
        </mxGraphModel>
    </diagram>
</mxfile>